HIERARCHY
ROOT Hips
{
	OFFSET -3.958830 18.904000 13.208200
	CHANNELS 6 Xposition Yposition Zposition Zrotation Yrotation Xrotation 
	JOINT LHipJoint
	{
		OFFSET 0.000000 0.000000 0.000000
		CHANNELS 3 Zrotation Yrotation Xrotation
		JOINT LeftUpLeg
		{
			OFFSET 1.800000 -1.400000 0.085000
			CHANNELS 3 Zrotation Yrotation Xrotation
			JOINT LeftLeg
			{
				OFFSET 2.215000 -6.000000 0.000000
				CHANNELS 3 Zrotation Yrotation Xrotation
				JOINT LeftFoot
				{
					OFFSET 2.500000 -6.900000 0.000000
					CHANNELS 3 Zrotation Yrotation Xrotation
					JOINT LeftToeBase
					{
						OFFSET 0.200000 -0.500000 1.950000
						CHANNELS 3 Zrotation Yrotation Xrotation
						End Site
						{
							OFFSET 0.000000 0.000000 0.000000
						}
					}
				}
			}
		}
	}
	JOINT RHipJoint
	{
		OFFSET 0.000000 0.000000 0.000000
		CHANNELS 3 Zrotation Yrotation Xrotation
		JOINT RightUpLeg
		{
			OFFSET -1.800000 -1.400000 0.085000
			CHANNELS 3 Zrotation Yrotation Xrotation
			JOINT RightLeg
			{
				OFFSET -2.215000 -6.000000 0.000000
				CHANNELS 3 Zrotation Yrotation Xrotation
				JOINT RightFoot
				{
					OFFSET -2.500000 -6.900000 0.000000
					CHANNELS 3 Zrotation Yrotation Xrotation
					JOINT RightToeBase
					{
						OFFSET -0.200000 -0.500000 1.950000
						CHANNELS 3 Zrotation Yrotation Xrotation
						End Site
						{
							OFFSET 0.000000 0.000000 0.000000
						}
					}
				}
			}
		}
	}
	JOINT LowerBack
	{
		OFFSET 0.000000 0.000000 0.000000
		CHANNELS 3 Zrotation Yrotation Xrotation
		JOINT Spine
		{
			OFFSET -0.087000 1.940000 -0.288900
			CHANNELS 3 Zrotation Yrotation Xrotation
			JOINT Spine1
			{
				OFFSET 0.000000 1.950000 0.060000
				CHANNELS 3 Zrotation Yrotation Xrotation
				JOINT Neck
				{
					OFFSET 0.000000 0.000000 0.000000
					CHANNELS 3 Zrotation Yrotation Xrotation
					JOINT Neck1
					{
						OFFSET 0.000000 1.600000 0.340000
						CHANNELS 3 Zrotation Yrotation Xrotation
						JOINT Head
						{
							OFFSET 0.000000 1.667000 -0.240000
							CHANNELS 3 Zrotation Yrotation Xrotation
							End Site
							{
								OFFSET 0.000000 0.000000 0.000000
							}
						}
					}
				}
				JOINT LeftShoulder
				{
					OFFSET 0.000000 0.000000 0.000000
					CHANNELS 3 Zrotation Yrotation Xrotation
					JOINT LeftArm
					{
						OFFSET 2.700000 1.550000 -0.730000
						CHANNELS 3 Zrotation Yrotation Xrotation
						JOINT LeftForeArm
						{
							OFFSET 5.450000 0.000000 0.000000
							CHANNELS 3 Zrotation Yrotation Xrotation
							JOINT LeftHand
							{
								OFFSET 3.450000 0.000000 0.000000
								CHANNELS 3 Zrotation Yrotation Xrotation
								JOINT LeftHandIndex1
								{
									OFFSET 0.750000 0.000000 0.000000
									CHANNELS 3 Zrotation Yrotation Xrotation
									End Site
									{
										OFFSET 0.000000 0.000000 0.000000
									}
								}
							}
						}
					}
				}
				JOINT RightShoulder
				{
					OFFSET 0.000000 0.000000 0.000000
					CHANNELS 3 Zrotation Yrotation Xrotation
					JOINT RightArm
					{
						OFFSET -2.700000 1.550000 -0.730000
						CHANNELS 3 Zrotation Yrotation Xrotation
						JOINT RightForeArm
						{
							OFFSET -5.450000 0.000000 0.000000
							CHANNELS 3 Zrotation Yrotation Xrotation
							JOINT RightHand
							{
								OFFSET -3.450000 0.000000 0.000000
								CHANNELS 3 Zrotation Yrotation Xrotation
								JOINT RightHandIndex1
								{
									OFFSET -0.750000 0.000000 0.000000
									CHANNELS 3 Zrotation Yrotation Xrotation
									End Site
									{
										OFFSET 0.000000 0.000000 0.000000
									}
								}
							}
						}
					}
				}
			}
		}
	}
}
MOTION
Frames: 9
Frame Time: 0.016667
0.303280 17.105540 -3.269870 -2.461248 7.928620 -19.446334 -14.747817 13.787864 3.079662 9.864723 -3.575703 -2.628094 -12.971986 10.641985 27.902446 0.544710 6.576557 2.172907 0.687600 0.412130 0.751910 18.599797 -11.066996 2.441230 4.943809 -0.515642 -28.132364 -16.895028 -3.373127 57.076001 -1.453072 -7.538693 1.754809 -0.023930 -0.529500 -0.090950 -4.774661 -2.364692 -7.708228 18.254467 -17.965866 38.285841 -21.075501 -10.793551 14.454480 7.864700 -5.464252 -25.226625 -34.353976 11.417880 49.407872 12.346970 -2.738770 -21.825800 -28.709785 -34.494252 17.993062 -41.125462 -25.808695 -22.325962 135.349435 -47.060441 -117.958957 -3.769879 1.811272 0.812630 -0.635310 0.439790 0.002590 13.390560 34.142673 16.009480 75.772099 -2.005539 -33.379510 -4.414029 53.640105 -8.870578 2.191372 -1.384496 0.102650 0.032150 -0.381770 -0.233400 
0.284820 17.083960 -3.233170 -1.815279 7.990047 -18.940837 -14.796288 13.841192 3.157377 9.488578 -3.829306 -2.993276 -13.419432 10.935047 28.575630 0.576765 6.736037 2.128687 0.619320 0.313420 0.719560 18.543916 -10.989365 2.440432 4.150433 -0.446616 -28.833402 -16.067056 -3.663518 56.630760 -1.382204 -7.414444 1.794715 -0.076870 -0.510100 -0.105880 -4.629306 -2.648194 -7.785325 16.624151 -17.175600 38.847487 -19.889331 -11.115657 10.832975 7.895911 -5.536582 -24.429526 -34.417063 11.923259 49.601844 12.511780 -2.688520 -19.873790 -29.453151 -31.625604 16.807239 -44.244254 -22.779518 -19.327174 134.768995 -49.447877 -121.461037 -3.736094 1.892125 0.827900 -0.627390 0.410980 -0.016240 14.363969 31.702184 15.599230 77.188273 -3.195265 -33.030590 -4.565070 52.298635 -8.178372 2.218096 -1.330890 0.066560 0.026390 -0.349670 -0.249690 
0.243590 17.054570 -3.166670 -0.340847 8.179680 -17.367515 -14.878941 13.879386 3.281425 8.448267 -4.211884 -4.016209 -14.206007 11.314300 29.244584 0.694660 6.855576 2.112933 0.488360 0.150490 0.624090 18.448376 -10.878969 2.470351 1.937700 -0.257711 -30.735252 -13.517893 -4.564305 54.801338 -1.195129 -7.009278 1.938185 -0.201090 -0.464640 -0.110830 -4.378346 -3.038059 -7.918882 13.627769 -15.667561 40.023906 -16.966180 -12.185130 1.215339 7.837886 -6.343204 -21.885703 -35.679846 12.821606 48.628037 12.998750 -3.135540 -15.560810 -28.983812 -23.818583 13.224895 -52.053518 -15.577241 -13.013004 134.633414 -54.335471 -129.170137 -3.516241 2.316639 0.802590 -0.602200 0.361960 -0.029640 15.233721 24.324463 14.041118 79.584814 -6.856200 -31.337480 -3.559947 48.391493 -5.718053 2.306193 -1.228009 0.057390 -0.019120 -0.306480 -0.232600 
0.188270 17.059970 -3.060200 1.075385 7.869499 -14.748003 -14.920910 13.873146 3.338564 7.118859 -4.251363 -5.435057 -14.181551 11.265632 29.033677 0.786979 6.636869 2.213728 0.372870 0.009650 0.568240 18.375472 -10.813251 2.654376 -0.573751 0.430983 -32.600179 -9.430404 -5.817196 51.488034 -0.976379 -6.349765 2.185080 -0.339220 -0.452620 -0.126410 -4.206725 -3.118238 -8.050025 11.258631 -13.942441 40.073965 -13.969905 -12.604576 -10.756469 7.796261 -6.798040 -19.123175 -35.540229 14.089222 49.752966 12.867000 -2.661390 -11.212130 -26.932627 -13.388641 9.595355 -58.959819 -5.570056 -9.612217 141.604049 -63.136947 -146.124328 -3.067717 2.975350 0.784100 -0.595880 0.345730 -0.040690 14.772481 14.120286 11.910057 82.128253 -12.013483 -29.561077 -3.902126 45.387952 -3.760997 2.390132 -1.054529 0.067440 -0.066490 -0.297510 -0.219280 
0.119210 17.080840 -2.928920 1.973287 6.963436 -10.688726 -14.944847 13.848831 3.337998 5.889107 -4.085701 -7.965025 -13.516362 10.839122 28.042186 0.843221 6.152753 2.390775 0.263820 -0.135280 0.521030 18.321442 -10.623436 3.051446 -2.954384 1.791715 -35.128747 -3.638095 -7.458538 47.240977 -0.752454 -5.694345 2.418023 -0.481720 -0.449220 -0.109270 -4.074849 -3.130481 -8.210367 9.670682 -12.358188 37.902446 -11.617824 -12.043522 -21.117057 7.686972 -7.210518 -17.078450 -32.697423 13.581796 49.970196 11.217560 -1.708170 -4.522510 -22.877035 -1.650280 7.065749 -62.281407 4.229654 -9.956952 167.640938 -70.951775 -179.364787 -2.754737 3.271172 0.724000 -0.567890 0.320740 -0.048610 11.922752 3.402233 10.337999 83.359218 -17.924443 -28.250066 0.292443 46.596738 -0.724744 2.444953 -1.003714 0.105690 -0.172840 -0.301100 -0.201540 
0.061770 17.114270 -2.804970 2.008527 5.014959 -6.930530 -14.970519 13.887785 3.327050 5.383745 -3.907944 -10.518502 -12.641727 10.342912 26.884728 0.813396 5.710992 2.542611 0.153770 -0.292310 0.464460 18.265564 -10.361213 3.453545 -4.976930 3.142496 -36.381771 3.297376 -9.259044 42.248271 -0.576176 -5.211464 2.598864 -0.594020 -0.425190 -0.093020 -3.913785 -3.289851 -8.346680 8.915822 -10.933453 35.159870 -9.649308 -10.500328 -27.588865 7.325094 -7.287923 -16.160204 -29.148119 12.179532 49.041064 9.115330 -0.548500 1.861520 -17.484287 7.826213 5.944239 -62.720528 12.003163 -9.081943 -161.673803 -70.751547 142.737115 -2.689380 3.181741 0.681550 -0.519750 0.269300 -0.064820 7.725632 -4.916240 9.373572 83.210781 -22.339648 -26.396005 5.375949 47.782701 2.625716 2.462091 -1.006831 0.104650 -0.258380 -0.273690 -0.205890 
0.013810 17.124020 -2.679210 1.290822 2.599869 -4.274355 -14.981052 13.954209 3.315145 5.801199 -3.550883 -12.055113 -12.080599 10.051018 25.606484 0.756739 5.441893 2.635293 0.041950 -0.436040 0.411930 18.212051 -10.220205 3.725927 -6.004479 4.250682 -35.676764 9.199441 -10.198929 37.014029 -0.435722 -4.833740 2.744620 -0.667420 -0.369980 -0.074910 -3.764939 -3.359625 -8.488138 8.363071 -9.130459 31.900304 -7.907831 -8.149698 -29.589676 6.178605 -6.324329 -15.421784 -22.909697 9.504318 47.852691 6.840680 1.045080 8.005130 -12.594020 14.274951 5.556070 -60.450208 17.559384 -6.181619 -144.743565 -66.109419 117.916996 -2.807245 3.255976 0.622960 -0.432160 0.196670 -0.095900 4.621890 -11.020697 8.360550 80.956455 -24.966382 -24.171724 11.457580 47.887168 5.573641 2.483987 -1.036867 0.077970 -0.315350 -0.223180 -0.219590 
-0.050760 17.139860 -2.575250 0.592750 0.486569 -3.178672 -15.018415 14.092788 3.277675 6.207505 -3.032675 -12.286144 -10.758693 9.534193 24.517872 0.653822 5.159099 2.713156 0.008010 -0.501420 0.447940 18.106877 -10.280826 3.847163 -6.439633 4.837742 -33.367307 13.186092 -10.402720 32.779649 -0.376917 -4.561678 2.838017 -0.693190 -0.377340 -0.039210 -3.504432 -3.324224 -8.642111 6.021492 -6.503828 29.316212 -4.912759 -4.898096 -29.044654 4.903707 -3.723725 -15.090192 -15.401921 6.485953 49.719260 3.841620 2.846200 11.289850 -9.987490 16.699900 5.866342 -57.521783 21.496771 -3.788578 -136.037617 -60.909708 101.684265 -2.921922 3.451567 0.614630 -0.377630 0.184540 -0.136900 3.746414 -14.441670 7.865514 79.677210 -26.631609 -24.366539 13.631973 49.769866 6.681640 2.438974 -1.087021 0.066730 -0.359520 -0.199160 -0.262160 
-0.112030 17.175610 -2.472280 0.372430 -1.904346 -2.414249 -15.062554 14.236165 3.208102 5.624397 -2.394920 -11.769507 -8.493216 8.681204 23.519772 0.558382 4.713188 2.849818 0.052830 -0.461560 0.533900 17.995366 -10.499811 3.866134 -6.498039 4.989017 -30.924579 14.495025 -9.816890 29.656712 -0.335293 -4.231156 2.950616 -0.666390 -0.438350 -0.028300 -3.205362 -3.094298 -8.715761 2.863778 -3.875316 25.796157 -1.459457 -1.887077 -27.491577 3.875397 -0.932856 -15.127697 -8.796636 3.944202 52.523929 0.904750 4.544530 13.509910 -8.481841 17.526946 6.637150 -54.571802 25.405402 -2.489114 -131.127989 -55.663840 90.047741 -2.930548 3.635111 0.608850 -0.366160 0.211160 -0.151770 3.638606 -16.676674 7.462768 78.936104 -27.537169 -25.238861 13.332409 51.770055 6.583931 2.399392 -1.158145 0.081940 -0.393760 -0.237070 -0.297950 
